REM DIRINDEX 1\4,1\2\5,1\2\6,1\3\7,1\3\8
REM DIRNAME cjc124,folder01,folder02,folder03,folder04,folder05,folder06,folder07
TITLE ""
FILE "055_Day28_Check2_Phrases.mp3" MP3
  TRACK 01 AUDIO
    TITLE "0:"
    INDEX 01 00:00:00
  TRACK 02 AUDIO
    TITLE "4:cjc124_1785"
    INDEX 01 00:00:31
  TRACK 03 AUDIO
    TITLE "0:"
    INDEX 01 00:01:46
  TRACK 04 AUDIO
    TITLE "5:cjc124_1786"
    INDEX 01 00:02:00
  TRACK 05 AUDIO
    TITLE "0:"
    INDEX 01 00:04:15
  TRACK 06 AUDIO
    TITLE "6:cjc124_1787"
    INDEX 01 00:04:33
  TRACK 07 AUDIO
    TITLE "0:"
    INDEX 01 00:06:39
  TRACK 08 AUDIO
    TITLE "5:cjc124_1788"
    INDEX 01 00:07:03
  TRACK 09 AUDIO
    TITLE "0:"
    INDEX 01 00:09:40
  TRACK 10 AUDIO
    TITLE "6:cjc124_1789"
    INDEX 01 00:09:55
  TRACK 11 AUDIO
    TITLE "0:"
    INDEX 01 00:12:12
  TRACK 12 AUDIO
    TITLE "5:cjc124_1790"
    INDEX 01 00:12:50
  TRACK 13 AUDIO
    TITLE "0:"
    INDEX 01 00:15:28
  TRACK 14 AUDIO
    TITLE "6:cjc124_1791"
    INDEX 01 00:15:48
  TRACK 15 AUDIO
    TITLE "0:"
    INDEX 01 00:17:69
  TRACK 16 AUDIO
    TITLE "5:cjc124_1792"
    INDEX 01 00:18:31
  TRACK 17 AUDIO
    TITLE "0:"
    INDEX 01 00:20:06
  TRACK 18 AUDIO
    TITLE "6:cjc124_1793"
    INDEX 01 00:20:39
  TRACK 19 AUDIO
    TITLE "0:"
    INDEX 01 00:21:51
  TRACK 20 AUDIO
    TITLE "5:cjc124_1794"
    INDEX 01 00:22:17
  TRACK 21 AUDIO
    TITLE "0:"
    INDEX 01 00:23:57
  TRACK 22 AUDIO
    TITLE "6:cjc124_1795"
    INDEX 01 00:24:02
  TRACK 23 AUDIO
    TITLE "0:"
    INDEX 01 00:25:46
  TRACK 24 AUDIO
    TITLE "5:cjc124_1796"
    INDEX 01 00:26:11
  TRACK 25 AUDIO
    TITLE "0:"
    INDEX 01 00:28:39
  TRACK 26 AUDIO
    TITLE "6:cjc124_1797"
    INDEX 01 00:28:57
  TRACK 27 AUDIO
    TITLE "0:"
    INDEX 01 00:31:33
  TRACK 28 AUDIO
    TITLE "5:cjc124_1798"
    INDEX 01 00:31:71
  TRACK 29 AUDIO
    TITLE "0:"
    INDEX 01 00:33:66
  TRACK 30 AUDIO
    TITLE "6:cjc124_1799"
    INDEX 01 00:34:08
  TRACK 31 AUDIO
    TITLE "0:"
    INDEX 01 00:35:57
  TRACK 32 AUDIO
    TITLE "5:cjc124_1800"
    INDEX 01 00:36:21
  TRACK 33 AUDIO
    TITLE "0:"
    INDEX 01 00:38:33
  TRACK 34 AUDIO
    TITLE "6:cjc124_1801"
    INDEX 01 00:38:61
  TRACK 35 AUDIO
    TITLE "0:"
    INDEX 01 00:40:48
  TRACK 36 AUDIO
    TITLE "5:cjc124_1802"
    INDEX 01 00:41:10
  TRACK 37 AUDIO
    TITLE "0:"
    INDEX 01 00:43:46
  TRACK 38 AUDIO
    TITLE "6:cjc124_1803"
    INDEX 01 00:43:74
  TRACK 39 AUDIO
    TITLE "0:"
    INDEX 01 00:45:63
  TRACK 40 AUDIO
    TITLE "5:cjc124_1804"
    INDEX 01 00:46:31
  TRACK 41 AUDIO
    TITLE "0:"
    INDEX 01 00:48:18
  TRACK 42 AUDIO
    TITLE "6:cjc124_1805"
    INDEX 01 00:48:36
  TRACK 43 AUDIO
    TITLE "0:"
    INDEX 01 00:50:19
  TRACK 44 AUDIO
    TITLE "5:cjc124_1806"
    INDEX 01 00:50:56
  TRACK 45 AUDIO
    TITLE "0:"
    INDEX 01 00:53:45
  TRACK 46 AUDIO
    TITLE "6:cjc124_1807"
    INDEX 01 00:53:62
  TRACK 47 AUDIO
    TITLE "0:"
    INDEX 01 00:56:06
  TRACK 48 AUDIO
    TITLE "5:cjc124_1808"
    INDEX 01 00:56:43
  TRACK 49 AUDIO
    TITLE "0:"
    INDEX 01 00:59:16
  TRACK 50 AUDIO
    TITLE "6:cjc124_1809"
    INDEX 01 00:59:34
  TRACK 51 AUDIO
    TITLE "0:"
    INDEX 01 01:01:66
  TRACK 52 AUDIO
    TITLE "5:cjc124_1810"
    INDEX 01 01:02:30
  TRACK 53 AUDIO
    TITLE "0:"
    INDEX 01 01:04:15
  TRACK 54 AUDIO
    TITLE "6:cjc124_1811"
    INDEX 01 01:04:31
  TRACK 55 AUDIO
    TITLE "0:"
    INDEX 01 01:05:71
  TRACK 56 AUDIO
    TITLE "5:cjc124_1812"
    INDEX 01 01:06:38
  TRACK 57 AUDIO
    TITLE "0:"
    INDEX 01 01:08:70
  TRACK 58 AUDIO
    TITLE "6:cjc124_1813"
    INDEX 01 01:09:16
  TRACK 59 AUDIO
    TITLE "0:"
    INDEX 01 01:11:13
  TRACK 60 AUDIO
    TITLE "5:cjc124_1814"
    INDEX 01 01:11:51
  TRACK 61 AUDIO
    TITLE "0:"
    INDEX 01 01:13:36
  TRACK 62 AUDIO
    TITLE "6:cjc124_1815"
    INDEX 01 01:14:00
  TRACK 63 AUDIO
    TITLE "0:"
    INDEX 01 01:15:48
  TRACK 64 AUDIO
    TITLE "5:cjc124_1816"
    INDEX 01 01:16:11
  TRACK 65 AUDIO
    TITLE "0:"
    INDEX 01 01:17:63
  TRACK 66 AUDIO
    TITLE "6:cjc124_1817"
    INDEX 01 01:18:09
  TRACK 67 AUDIO
    TITLE "0:"
    INDEX 01 01:19:70
